<svg width="440" height="220" viewBox="0 0 440 220" xmlns="http://www.w3.org/2000/svg">
  <defs>
    <linearGradient id="bg" x1="0%" y1="0%" x2="100%" y2="100%">
      <stop offset="0%" style="stop-color:#0c0c14"/><stop offset="100%" style="stop-color:#050507"/>
    </linearGradient>
  </defs>
  <rect width="440" height="220" rx="4" fill="url(#bg)" stroke="#e8ff00" stroke-width="0.5" stroke-opacity="0.3"/>
  <rect width="440" height="3" rx="2" fill="#e8ff00"/>
  <rect x="24" y="28" width="36" height="36" rx="6" fill="#e8ff00" opacity="0.1" stroke="#e8ff00" stroke-width="0.5" stroke-opacity="0.4"/>
  <text x="35" y="53" font-size="18">🔒</text>
  <text x="72" y="40" font-family="'Courier New', monospace" font-size="9" fill="#e8ff00" letter-spacing="2" opacity="0.8">LIVE PRODUCT</text>
  <text x="72" y="57" font-family="Georgia, serif" font-size="20" font-weight="900" fill="#f0ede8" letter-spacing="-0.5">FastTempMail</text>
  <line x1="24" y1="80" x2="416" y2="80" stroke="#ffffff" stroke-width="0.3" stroke-opacity="0.1"/>
  <text x="24" y="106" font-family="'Courier New', monospace" font-size="11" fill="#8888aa">Privacy-first disposable email service.</text>
  <text x="24" y="124" font-family="'Courier New', monospace" font-size="11" fill="#8888aa">No sign-up. Anonymous. Spam-free.</text>
  <rect x="24" y="146" width="46" height="20" rx="10" fill="none" stroke="#334" stroke-width="1"/>
  <text x="31" y="160" font-family="'Courier New', monospace" font-size="9" fill="#8888aa">Bun.js</text>
  <rect x="78" y="146" width="54" height="20" rx="10" fill="none" stroke="#334" stroke-width="1"/>
  <text x="86" y="160" font-family="'Courier New', monospace" font-size="9" fill="#8888aa">Hono.js</text>
  <rect x="140" y="146" width="44" height="20" rx="10" fill="none" stroke="#334" stroke-width="1"/>
  <text x="148" y="160" font-family="'Courier New', monospace" font-size="9" fill="#8888aa">Nuxt</text>
  <rect x="192" y="146" width="48" height="20" rx="10" fill="none" stroke="#334" stroke-width="1"/>
  <text x="200" y="160" font-family="'Courier New', monospace" font-size="9" fill="#8888aa">MySQL</text>
  <text x="400" y="192" font-family="'Courier New', monospace" font-size="18" fill="#e8ff00" opacity="0.7">↗</text>
  <circle cx="32" cy="202" r="4" fill="#e8ff00">
    <animate attributeName="opacity" values="1;0.4;1" dur="2s" repeatCount="indefinite"/>
  </circle>
  <text x="44" y="206" font-family="'Courier New', monospace" font-size="9" fill="#e8ff00" letter-spacing="1">fasttempmail.com</text>
</svg>
